<?xml version="1.0" encoding="UTF-8" ?>
<svg version="1.1" width="512" height="512" xmlns="http://www.w3.org/2000/svg" shape-rendering="crispEdges">
<rect x="122" y="24" width="294" height="36" fill="#46492B" />
<rect x="120" y="44" width="2" height="88" fill="#46492B" />
<rect x="122" y="60" width="26" height="72" fill="#46492B" />
<rect x="148" y="60" width="224" height="72" fill="#777D40" />
<rect x="372" y="60" width="44" height="40" fill="#46492B" />
<rect x="76" y="132" width="72" height="76" fill="#777D40" />
<rect x="148" y="132" width="48" height="76" fill="#46492B" />
<rect x="196" y="167" width="148" height="1" fill="#323C39" />
<rect x="196" y="168" width="148" height="40" fill="#46492B" />
<rect x="120" y="208" width="28" height="212" fill="#46492B" />
<rect x="148" y="208" width="148" height="68" fill="#777D40" />
<rect x="296" y="208" width="48" height="36" fill="#46492B" />
<rect x="148" y="276" width="48" height="144" fill="#46492B" />
<rect x="296" y="276" width="76" height="144" fill="#777D40" />
<rect x="196" y="388" width="100" height="32" fill="#46492B" />
<rect x="372" y="388" width="44" height="72" fill="#46492B" />
<rect x="76" y="420" width="220" height="72" fill="#777D40" />
<rect x="296" y="420" width="76" height="40" fill="#46492B" />
</svg>